<svg role="img" viewBox="0 0 24 24" xmlns="http://www.w3.org/2000/svg" fill="white">
  <title>GitHub</title>
  <path d="M12 .297c-6.63 0-12 5.373-12 12 0 5.303 3.438 9.8 8.205 11.385.6.113.82-.258.82-.577v-2.234c-3.338.725-4.033-1.416-4.033-1.416-.546-1.387-1.334-1.756-1.334-1.756-1.09-.744.084-.729.084-.729 1.205.084 1.84 1.236 1.84 1.236 1.07 1.835 2.805 1.305 3.49.998.108-.775.42-1.305.764-1.605-2.665-.3-5.466-1.332-5.466-5.93 0-1.31.465-2.38 1.235-3.22-.135-.303-.54-1.522.105-3.173 0 0 1.005-.322 3.3 1.23.96-.267 1.98-.399 3-.405 1.02.006 2.04.138 3 .405 2.28-1.552 3.285-1.23 3.285-1.23.645 1.65.24 2.87.12 3.173.765.84 1.23 1.91 1.23 3.22 0 4.61-2.805 5.625-5.475 5.92.435.375.81 1.102.81 2.22v3.293c0 .322.225.69.825.573C20.565 22.092 24 17.592 24 12.297c0-6.627-5.373-12-12-12"/>
</svg>
